<svg id="Layer_1" data-name="Layer 1" xmlns="http://www.w3.org/2000/svg" width="137.867" height="83.177" viewBox="0 0 137.867 83.177">
  <path id="Path_623" data-name="Path 623" d="M42.93,40.619A14.331,14.331,0,0,1,37.18,52.7q-5.75,4.37-16.69,4.376a46.447,46.447,0,0,1-8.286-.693,26.649,26.649,0,0,1-6.5-1.955,12.457,12.457,0,0,1-4.2-2.993A5.67,5.67,0,0,1,0,47.64a6.356,6.356,0,0,1,.862-3.223A6.791,6.791,0,0,1,3.223,42a46.759,46.759,0,0,0,7.366,3.8,25.025,25.025,0,0,0,9.669,1.728q5.181,0,7.938-1.786a5.73,5.73,0,0,0,2.766-5.111,5.9,5.9,0,0,0-1.917-4.6,13.025,13.025,0,0,0-5.567-2.658L15.651,31.3q-7.823-2.07-11.5-5.638T.46,15.874A14.55,14.55,0,0,1,1.84,9.6,14,14,0,0,1,5.928,4.538,20.066,20.066,0,0,1,12.662,1.2,31.942,31.942,0,0,1,21.867-.008a41.3,41.3,0,0,1,7.538.639,26.93,26.93,0,0,1,5.871,1.728,10.6,10.6,0,0,1,3.855,2.705,5.219,5.219,0,0,1,1.38,3.45,5.97,5.97,0,0,1-.8,3.165,6.455,6.455,0,0,1-2.073,2.131,35.143,35.143,0,0,0-6.155-2.763,25.454,25.454,0,0,0-8.8-1.5,14.678,14.678,0,0,0-7.6,1.667,5.209,5.209,0,0,0-2.769,4.66,5.031,5.031,0,0,0,1.556,3.8,11.782,11.782,0,0,0,5.35,2.418L25.9,23.818q8.746,2.3,12.889,6.213t4.152,10.589" transform="translate(0 0.011)" fill="#fff"/>
  <path id="Path_624" data-name="Path 624" d="M174.6,57.469a11.764,11.764,0,0,1-2.236.639,16.813,16.813,0,0,1-3.277.287,7.893,7.893,0,0,1-4.948-1.278q-1.607-1.278-1.613-4.258V4.168l2.36-.578a14.288,14.288,0,0,1,3.277-.342,7.648,7.648,0,0,1,4.893,1.278Q174.614,5.8,174.614,8.9Z" transform="translate(-110.615 -2.206)" fill="#fff"/>
  <path id="Path_625" data-name="Path 625" d="M251.557,0q10.7,0,17.035,4.664t6.328,14.671V46.149a6.188,6.188,0,0,1-1.207,4.089,13.153,13.153,0,0,1-3.28,2.7,32.284,32.284,0,0,1-7.711,2.993,42.762,42.762,0,0,1-10.934,1.278q-11.164,0-17.437-4.37t-6.27-12.914q0-7.593,4.89-11.624t14.1-4.948l16-1.613V19.219q0-5.06-3.28-7.366t-9.148-2.3a30.983,30.983,0,0,0-8.864,1.278,51.333,51.333,0,0,0-7.6,2.875,8.516,8.516,0,0,1-1.955-2.236,5.535,5.535,0,0,1-.808-2.935,5.13,5.13,0,0,1,.981-3.223,7.647,7.647,0,0,1,3.05-2.185,27.314,27.314,0,0,1,7.366-2.38A49.491,49.491,0,0,1,251.557,0m.23,47.763a27.208,27.208,0,0,0,7.027-.8,13.651,13.651,0,0,0,4.258-1.728V30.616l-12.544,1.278q-5.293.575-7.941,2.357a6.136,6.136,0,0,0-2.648,5.468,6.956,6.956,0,0,0,2.875,5.928q2.875,2.127,8.976,2.127" transform="translate(-155.227 0.004)" fill="#fff"/>
  <path id="Path_626" data-name="Path 626" d="M390.74,143.128a6.722,6.722,0,0,1,1.734-4.75,7.124,7.124,0,0,1,9.64,0,7.543,7.543,0,0,1,0,9.5,7.111,7.111,0,0,1-9.634,0,6.794,6.794,0,0,1-1.734-4.75" transform="translate(-265.93 -92.896)" fill="#ff4141"/>
  <path id="Path_627" data-name="Path 627" d="M238.015,217.349a50.889,50.889,0,0,1-12.045-1.46,53.088,53.088,0,0,1-17.98-8.075,5.935,5.935,0,1,1,7.168-9.461c.958.719,21.829,15.827,45.408-.176A5.935,5.935,0,1,1,267.233,208a51.3,51.3,0,0,1-29.217,9.349" transform="translate(-139.954 -134.172)" fill="#fff"/>
</svg>
