<svg xmlns="http://www.w3.org/2000/svg" width="18.182" height="20" viewBox="0 0 18.182 20">
  <path id="icons8-delete-trash" d="M9.454,2l-.909.909H4.909a.909.909,0,1,0,0,1.818H17.636a.909.909,0,1,0,0-1.818H14L13.091,2ZM4.909,6.545V18.363a1.824,1.824,0,0,0,1.818,1.818h6.564l1.827-1.818H14a.909.909,0,0,1-.909-.909V9.273a.909.909,0,0,1,1.818,0v5.254a2.7,2.7,0,0,1,1.818-.708,2.518,2.518,0,0,1,.465.044,2.954,2.954,0,0,1,.444.121V6.545ZM8.545,8.364a.909.909,0,0,1,.909.909v8.182a.909.909,0,1,1-1.818,0V9.273A.909.909,0,0,1,8.545,8.364Zm8.182,7.273a.909.909,0,0,0-.643,1.552l1.63,1.63-1.63,1.63a.909.909,0,1,0,1.285,1.285L19,20.1l1.63,1.63a.909.909,0,1,0,1.285-1.285l-1.63-1.63,1.63-1.63A.909.909,0,1,0,20.63,15.9L19,17.532,17.37,15.9A.9.9,0,0,0,16.727,15.636Z" transform="translate(-4 -2)" fill="#ff5a5a"/>
</svg>
